<svg width="16" height="16" viewBox="0 0 16 16" fill="none" xmlns="http://www.w3.org/2000/svg">
<path fill-rule="evenodd" clip-rule="evenodd" d="M14.6318 4.88867H2.18698C1.75763 4.88867 1.40918 5.23713 1.40918 5.66647V7.22207C1.40918 7.65142 1.75763 7.99987 2.18698 7.99987H14.6318C15.0611 7.99987 15.4096 7.65142 15.4096 7.22207V5.66647C15.4096 5.23713 15.0611 4.88867 14.6318 4.88867Z" stroke="#E33319" stroke-linecap="round" stroke-linejoin="round"/>
<path d="M8.40941 15.0001V4.88867" stroke="#E33319" stroke-linecap="round" stroke-linejoin="round"/>
<path d="M11.2841 3.80908C10.4456 4.68177 9.12568 4.88867 8.48633 4.88867" stroke="#E33319" stroke-linecap="round" stroke-linejoin="round"/>
<path d="M8.4865 4.88869C8.4865 4.88869 8.10227 2.46507 9.04729 1.48193" stroke="#E33319" stroke-linecap="round" stroke-linejoin="round"/>
<path d="M11.284 3.80902C11.9016 3.16656 11.9016 2.12431 11.284 1.48185C10.6665 0.839384 9.66542 0.839384 9.04785 1.48185" stroke="#E33319" stroke-linecap="round" stroke-linejoin="round"/>
<path d="M5.53467 3.80908C6.37314 4.68177 7.69306 4.88867 8.33241 4.88867" stroke="#E33319" stroke-linecap="round" stroke-linejoin="round"/>
<path d="M8.33232 4.88869C8.33232 4.88869 8.71655 2.46507 7.77152 1.48193" stroke="#E33319" stroke-linecap="round" stroke-linejoin="round"/>
<path d="M5.53447 3.80902C4.9169 3.16656 4.9169 2.12431 5.53447 1.48185C6.15204 0.839384 7.15307 0.839384 7.77064 1.48185" stroke="#E33319" stroke-linecap="round" stroke-linejoin="round"/>
<path d="M13.854 8V14.2224C13.854 14.6517 13.5056 15.0002 13.0762 15.0002H3.74264C3.3133 15.0002 2.96484 14.6517 2.96484 14.2224V8" stroke="#E33319" stroke-linecap="round" stroke-linejoin="round"/>
</svg>
