<svg width="13" height="14" viewBox="0 0 13 14" fill="none" xmlns="http://www.w3.org/2000/svg">
<g clip-path="url(#clip0_2018_8420)">
<path d="M10.2457 13.2C9.6604 13.2 9.16249 12.7861 9.04019 12.2137C8.97904 11.9055 8.90916 11.5357 8.83054 11.1218C8.6209 9.93302 8.23654 9.47512 7.40669 9.43989H6.5419V8.59453H7.48531C8.46366 8.59453 9.08387 7.9429 9.08387 6.94783C9.08387 5.82068 8.41998 5.32755 7.4591 5.32755C7.2844 5.32755 6.14007 5.32755 4.82104 5.32755V12.6981C4.82104 12.927 4.6376 13.1031 4.41922 13.1031C4.1921 13.1031 4.0174 12.9182 4.0174 12.6981V5.32755C2.99537 5.32755 1.9646 5.32755 1.26578 5.32755C0.794075 5.32755 0.418457 4.9489 0.418457 4.47338C0.418457 4.47338 2.2354 4.47338 4.0174 4.47338V3.4431C4.00866 1.54103 5.28401 0 6.84763 0H9.46822C9.69534 0 9.87004 0.184923 9.87004 0.40507C9.87004 0.625217 9.6866 0.81014 9.46822 0.81014H6.84763C5.72951 0.81014 4.81231 1.99013 4.81231 3.4431V4.45577C6.06146 4.45577 7.14463 4.45577 7.38922 4.45577C8.35884 4.45577 8.99651 4.68472 9.44201 5.16905C9.79143 5.5477 9.99234 6.13769 9.99234 6.81574C9.99234 7.9517 9.39834 8.71781 8.65584 9.02602V9.06124C9.19743 9.29019 9.52063 9.91541 9.69534 10.8136C9.8089 11.4212 9.91372 11.932 10.0011 12.3282C10.0972 12.7333 10.1758 13.0239 10.2457 13.2Z" fill="#E33319"/>
<path d="M12.2892 6.91263V7.23845C12.2892 7.38815 12.1669 7.51143 12.0184 7.51143H11.7127C11.5642 7.51143 11.4419 7.38815 11.4419 7.23845V6.91263C11.4419 6.76293 11.5642 6.63965 11.7127 6.63965H12.0184C12.1757 6.63965 12.2892 6.76293 12.2892 6.91263ZM12.2717 8.76186V12.883C12.2717 13.0327 12.1495 13.156 12.001 13.156H11.7389C11.5904 13.156 11.4681 13.0327 11.4681 12.883V8.76186C11.4681 8.61216 11.5904 8.48888 11.7389 8.48888H12.001C12.1582 8.48888 12.2717 8.61216 12.2717 8.76186Z" fill="#E33319"/>
</g>
<defs>
<clipPath id="clip0_2018_8420">
<rect width="11.88" height="13.2" fill="white" transform="translate(0.40918)"/>
</clipPath>
</defs>
</svg>
