<svg width="16" height="16" viewBox="0 0 16 16" fill="none" xmlns="http://www.w3.org/2000/svg">
<path fill-rule="evenodd" clip-rule="evenodd" d="M10.3318 15H2.96474C2.10529 15 1.40918 14.3039 1.40918 13.4444V6.07733C1.40918 5.66511 1.57329 5.26922 1.86496 4.97756L5.38674 1.45578C5.6784 1.16411 6.07429 1 6.48651 1H13.8536C14.7131 1 15.4092 1.69611 15.4092 2.55556V9.92267C15.4092 10.3349 15.2451 10.7308 14.9534 11.0224L11.4316 14.5442C11.14 14.8359 10.7441 15 10.3318 15V15Z" stroke="#E33319" stroke-linecap="round" stroke-linejoin="round"/>
<path d="M15.3701 10.3332H7.63124C6.77179 10.3332 6.07568 9.6371 6.07568 8.77766V1.06055" stroke="#E33319" stroke-linecap="round" stroke-linejoin="round"/>
<path d="M1.46533 5.6665H9.18711C10.0466 5.6665 10.7427 6.36261 10.7427 7.22206V14.9485" stroke="#E33319" stroke-linecap="round" stroke-linejoin="round"/>
</svg>
