<svg width="28" height="28" viewBox="0 0 28 28" fill="none" xmlns="http://www.w3.org/2000/svg">
<path fill-rule="evenodd" clip-rule="evenodd" d="M13.9999 0.666748C21.3638 0.666748 27.3332 6.63615 27.3332 14.0001C27.3332 21.3635 21.3638 27.3335 13.9999 27.3335C6.63591 27.3335 0.666504 21.3635 0.666504 14.0001C0.666504 6.63615 6.63591 0.666748 13.9999 0.666748Z" fill="#2775CA"/>
<path fill-rule="evenodd" clip-rule="evenodd" d="M11.5008 23.2705C11.5008 23.5841 11.2551 23.7623 10.9518 23.6676C6.92044 22.3815 3.99756 18.6014 3.99756 14.1411C3.99756 9.68092 6.92044 5.90061 10.9518 4.61455C11.2551 4.52046 11.5008 4.69804 11.5008 5.01167V5.78592C11.5008 5.9947 11.3389 6.24046 11.14 6.30849C7.95044 7.47971 5.66559 10.5438 5.66559 14.1358C5.66559 17.7278 7.95044 20.7925 11.14 21.9631C11.3389 22.0364 11.5008 22.2767 11.5008 22.4862V23.2705Z" fill="white"/>
<path fill-rule="evenodd" clip-rule="evenodd" d="M14.8312 20.3893C14.8312 20.6196 14.643 20.8077 14.413 20.8077H13.5815C13.3515 20.8077 13.1633 20.6196 13.1633 20.3893V19.0718C11.3436 18.8262 10.455 17.8064 10.2144 16.4209C10.1724 16.1853 10.3606 15.9711 10.6012 15.9711H11.5529C11.7515 15.9711 11.9189 16.1124 11.9607 16.3108C12.1386 17.137 12.6144 17.7697 14.073 17.7697C15.1501 17.7697 15.9138 17.1683 15.9138 16.2694C15.9138 15.3697 15.4639 15.03 13.8848 14.7683C11.5529 14.4547 10.4497 13.7486 10.4497 11.9186C10.4497 10.507 11.5165 9.40908 13.1686 9.17363V7.88211C13.1686 7.65196 13.357 7.46362 13.5868 7.46362H14.4183C14.6483 7.46362 14.8365 7.65196 14.8365 7.88211V9.21029C16.1803 9.4512 17.0326 10.2141 17.3098 11.4794C17.362 11.7203 17.1738 11.9447 16.9282 11.9447H16.0495C15.8614 11.9447 15.7045 11.8191 15.6471 11.6362C15.4118 10.8314 14.8365 10.4864 13.8377 10.4864C12.7345 10.4864 12.1645 11.0195 12.1645 11.7671C12.1645 12.5567 12.4889 12.9538 14.1832 13.2C16.473 13.5136 17.655 14.1671 17.655 16.1179C17.655 17.5974 16.5568 18.7949 14.8365 19.0718V20.3893H14.8312Z" fill="white"/>
<path fill-rule="evenodd" clip-rule="evenodd" d="M17.0485 23.6676C16.7454 23.7623 16.4995 23.5841 16.4995 23.2705V22.4968C16.4995 22.2667 16.6407 22.0524 16.8603 21.9736C20.0498 20.8024 22.3347 17.7383 22.3347 14.1464C22.3347 10.5544 20.0498 7.49028 16.8603 6.31907C16.6616 6.24573 16.4995 6.00543 16.4995 5.79588V5.02225C16.4995 4.70861 16.7454 4.52573 17.0485 4.62452C21.0798 5.91134 24.0027 9.6915 24.0027 14.1517C23.9977 18.6012 21.0798 22.3762 17.0485 23.6676Z" fill="white"/>
</svg>
