<svg width="40" height="40" viewBox="0 0 40 40" fill="none" xmlns="http://www.w3.org/2000/svg">
<path d="M30.6068 9.39343C31.9996 10.7863 33.1045 12.4399 33.8584 14.2598C34.6122 16.0797 35.0002 18.0303 35.0002 20.0001C35.0002 21.9699 34.6122 23.9205 33.8584 25.7404C33.1045 27.5603 31.9996 29.2139 30.6068 30.6068C29.2139 31.9996 27.5603 33.1045 25.7404 33.8584C23.9205 34.6122 21.9699 35.0002 20.0001 35.0002C18.0303 35.0002 16.0797 34.6122 14.2598 33.8584C12.4399 33.1045 10.7863 31.9996 9.39343 30.6068C6.58036 27.7937 5 23.9784 5 20.0001C5 16.0218 6.58036 12.2065 9.39343 9.39343C12.2065 6.58036 16.0218 5 20.0001 5C23.9784 5 27.7937 6.58036 30.6068 9.39343" stroke="white" stroke-width="1.5" stroke-linecap="round" stroke-linejoin="round"/>
<path d="M28.8453 32.0953C28.2053 29.0287 24.5086 26.667 20.0003 26.667C15.4919 26.667 11.7953 29.0287 11.1553 32.0953" stroke="white" stroke-width="1.5" stroke-linecap="round" stroke-linejoin="round"/>
<path d="M23.5353 13.1318C24.0208 13.591 24.4093 14.1429 24.6779 14.7549C24.9465 15.3669 25.0897 16.0265 25.0989 16.6947C25.1082 17.363 24.9835 18.0263 24.732 18.6455C24.4806 19.2647 24.1075 19.8272 23.635 20.2998C23.1624 20.7724 22.5999 21.1454 21.9807 21.3969C21.3615 21.6483 20.6981 21.7731 20.0299 21.7638C19.3617 21.7545 18.7021 21.6113 18.0901 21.3427C17.4781 21.0742 16.9262 20.6856 16.4669 20.2001C15.5837 19.2523 15.1029 17.9986 15.1258 16.7033C15.1486 15.408 15.6734 14.1721 16.5895 13.256C17.5056 12.3399 18.7415 11.8151 20.0368 11.7923C21.3321 11.7694 22.5858 12.2502 23.5336 13.1334" stroke="white" stroke-width="1.5" stroke-linecap="round" stroke-linejoin="round"/>
</svg>
